# xmcd
#
# Track frame offsets:
#	150
#	16605
#	33996
#	45752
#	60861
#	76563
#	95651
#	110978
#	122664
#	139000
#
# Disc length: 2113 seconds
#
# Revision: 1
# Processed by: cddbd v1.5.2PL0 Copyright (c) Steve Scherf et al.
# Submitted via: audiograbber 1.83.01
#
DISCID=6b083f0a
DTITLE=Tanya Tucker - While I'm Livin'
DYEAR=2019
DGENRE=Country
TTITLE0=Mustang Ridge
TTITLE1=The Wheeks Of Laredo
TTITLE2=I Don't Owe You Anything
TTITLE3=The Day My Heart Goes Still
TTITLE4=High Ridin' Heroes
TTITLE5=The House That Built Me
TTITLE6=Hard Luck
TTITLE7=Rich
TTITLE8=Seminole Wind Calling
TTITLE9=Bring My Flowers Now
EXTD=
EXTT0=
EXTT1=
EXTT2=
EXTT3=
EXTT4=
EXTT5=
EXTT6=
EXTT7=
EXTT8=
EXTT9=
PLAYORDER=
